<?xml version="1.0" standalone="no"?>
<!DOCTYPE svg PUBLIC "-//W3C//DTD SVG 20010904//EN"
 "http://www.w3.org/TR/2001/REC-SVG-20010904/DTD/svg10.dtd">
<svg version="1.0" xmlns="http://www.w3.org/2000/svg"
 width="1024.000000pt" height="1024.000000pt" viewBox="0 0 1024.000000 1024.000000"
 preserveAspectRatio="xMidYMid meet">
<metadata>
Created by potrace 1.14, written by Peter Selinger 2001-2017
</metadata>
<g transform="translate(0.000000,1024.000000) scale(0.100000,-0.100000)"
fill="#000000" stroke="none">
<path d="M3009 9172 c-1 -4 -1 -10 0 -14 1 -9 3 -9 -109 -12 -47 -1 -88 2 -91
7 -4 5 -7 -3 -7 -19 0 -16 -3 -45 -6 -64 -2 -19 -5 -41 -5 -47 -1 -9 -17 -13
-46 -13 -43 0 -45 -2 -45 -27 1 -62 0 -63 -54 -64 -28 -1 -55 0 -61 1 -36 7
-43 7 -56 0 -9 -6 -12 -23 -10 -50 l3 -42 -66 4 c-36 2 -66 0 -66 -5 0 -4 -4
-5 -10 -2 -5 3 -10 0 -11 -7 0 -7 -2 -26 -2 -43 -1 -19 -8 -30 -17 -31 -8 0
-29 -2 -47 -2 -32 -2 -32 -3 -33 -54 0 -29 -1 -60 -1 -68 0 -8 3 -25 6 -37 7
-22 5 -23 -49 -23 -31 0 -57 -3 -57 -7 -1 -5 -3 -33 -4 -64 -1 -31 -5 -62 -9
-68 -4 -6 -3 -11 2 -11 6 0 9 -15 7 -33 -4 -47 4 -56 58 -58 l47 -3 0 -38 c0
-34 3 -38 25 -39 55 -3 51 1 54 -53 1 -21 7 -26 44 -31 l42 -7 -2 -46 c-1 -26
-2 -61 -2 -79 -1 -28 -6 -34 -33 -41 -31 -8 -33 -11 -30 -47 3 -31 1 -37 -12
-32 -9 4 -16 2 -16 -3 0 -6 -3 -9 -7 -9 -26 4 -28 -10 -26 -187 1 -102 3 -187
5 -189 2 -2 16 -6 31 -9 37 -7 47 -14 40 -31 -3 -8 -2 -26 1 -40 6 -23 10 -25
71 -25 69 0 69 0 67 -57 -1 -25 -6 -23 128 -27 l45 -1 3 -47 3 -47 42 -3 c42
-3 42 -3 40 -40 -1 -21 2 -39 5 -39 4 -1 17 -3 30 -4 29 -3 29 -4 34 -40 1
-16 8 -35 14 -42 6 -7 12 -44 12 -83 0 -78 13 -99 59 -94 18 2 23 -2 19 -12
-3 -8 -2 -14 3 -14 5 0 8 -61 7 -136 -2 -142 6 -174 42 -174 15 0 15 -2 2 -10
-8 -5 -10 -10 -5 -10 6 0 10 -24 10 -54 0 -30 -3 -52 -7 -50 -8 5 -4 -53 4
-62 4 -3 1 -15 -5 -25 -10 -16 -9 -21 3 -29 8 -6 10 -10 3 -10 -12 0 -12 -17
0 -37 5 -8 3 -13 -4 -13 -8 0 -6 -6 4 -18 10 -10 15 -21 12 -23 -4 -5 -13 -42
-14 -65 -1 -7 -12 -15 -26 -18 -16 -4 -22 -11 -19 -21 4 -8 1 -15 -6 -15 -6 0
-8 -5 -3 -12 4 -7 8 -61 9 -120 l0 -108 -32 0 c-62 0 -59 12 -56 -260 l2 -250
-40 0 -40 0 -1 -67 c-2 -185 1 -896 4 -899 2 -2 17 -4 35 -6 35 -2 40 -14 41
-102 1 -58 15 -78 50 -74 l26 3 2 -85 c1 -47 3 -119 4 -160 l2 -75 31 0 c29 0
31 -3 36 -40 4 -32 9 -41 28 -43 24 -4 24 -4 27 -72 5 -99 2 -92 38 -88 31 3
32 2 35 -39 3 -42 4 -43 37 -43 19 0 37 -6 41 -12 5 -7 9 -42 9 -78 2 -93 1
-90 45 -90 31 0 40 -4 41 -17 1 -10 2 -57 3 -105 2 -93 5 -103 39 -103 34 -1
47 -14 47 -46 0 -16 3 -29 8 -30 29 -3 67 -11 71 -15 3 -2 4 -32 3 -67 -2 -83
3 -97 38 -97 30 0 38 -12 42 -65 2 -28 4 -30 39 -28 l38 2 3 -47 c3 -44 5 -47
31 -48 40 -1 38 1 46 -93 1 -7 7 -11 14 -8 6 2 22 1 35 -4 20 -8 23 -15 21
-56 -1 -27 -1 -67 0 -90 1 -39 3 -42 34 -45 27 -2 32 -7 32 -28 1 -37 10 -46
51 -48 21 -2 39 -4 40 -5 5 -5 15 -78 20 -142 3 -38 8 -72 10 -74 2 -2 21 -7
41 -10 l38 -6 -3 -72 -4 -72 39 -3 c38 -3 38 -3 38 -48 0 -41 2 -45 24 -45 18
0 28 -9 37 -30 6 -16 9 -35 6 -43 -3 -10 4 -13 29 -12 56 3 70 1 68 -12 -1 -7
-1 -38 0 -70 1 -53 3 -57 31 -66 19 -7 32 -7 35 -1 14 21 23 -4 23 -62 0 -33
4 -64 8 -69 5 -5 25 -10 44 -12 l35 -4 1 -75 c2 -115 0 -109 39 -109 31 0 35
-3 36 -27 1 -16 1 -31 0 -35 0 -5 7 -9 16 -10 10 0 23 -2 28 -3 6 -2 20 -3 33
-4 19 -1 22 -6 22 -46 0 -44 7 -52 43 -46 4 1 17 -3 27 -9 15 -8 20 -21 20
-55 l0 -45 50 0 c28 0 49 -3 49 -7 -1 -5 -1 -23 0 -41 1 -31 3 -33 34 -32 61
4 69 1 67 -22 -1 -13 -2 -40 -1 -60 l1 -38 535 0 535 0 1 45 c1 25 2 51 3 58
1 9 33 12 124 12 102 -1 122 2 124 15 1 8 2 24 3 35 1 11 3 26 4 33 1 11 28
13 131 10 l130 -3 0 48 c0 26 3 48 8 48 4 1 30 3 57 4 28 2 69 4 93 6 l42 3
-3 43 c-2 23 1 44 7 46 6 3 77 4 157 4 80 0 150 3 156 6 5 3 9 32 8 64 -2 87
2 92 93 95 74 3 77 4 80 28 7 62 10 67 44 66 30 -1 33 2 38 34 l5 35 83 3 82
3 1 57 c1 31 1 60 0 65 -1 7 12 9 96 9 l53 1 -2 39 c-2 44 11 58 54 58 19 0
26 5 26 18 -1 9 2 29 5 45 6 23 12 26 35 22 28 -5 54 6 51 21 -1 5 -1 21 0 37
1 24 5 27 35 27 36 0 46 12 46 55 0 28 7 34 49 37 30 2 31 4 31 46 l0 44 33
-5 c37 -5 35 -7 37 68 1 26 7 45 13 46 7 1 19 2 27 3 8 0 18 -3 21 -8 4 -4 15
0 26 11 17 17 19 30 16 91 l-4 72 55 0 56 0 -2 448 -3 447 -42 1 c-24 0 -46 3
-49 7 -3 3 -7 55 -9 114 -1 59 -5 115 -9 123 -4 11 -19 15 -46 14 l-40 -1 0
79 0 79 -37 -3 -38 -3 -3 121 -3 121 -39 -3 -40 -3 0 38 c0 35 -3 39 -31 45
-17 3 -35 3 -40 0 -5 -3 -9 0 -9 6 0 6 -4 8 -10 5 -6 -4 -7 2 -1 17 11 31 -3
70 -24 62 -8 -3 -26 -3 -39 0 -24 6 -25 10 -14 56 2 11 -7 16 -34 18 -33 3
-38 7 -43 35 -3 18 -4 58 -2 89 l3 57 -36 3 -35 3 2 108 1 108 -41 -3 c-42 -2
-42 -2 -43 32 -2 57 -3 61 -16 59 -7 -1 -21 -1 -32 0 -16 1 -17 3 -5 18 8 9 9
14 2 10 -7 -5 -13 1 -15 15 -2 19 -10 24 -46 26 l-43 3 3 145 3 144 -52 0
c-29 0 -53 5 -55 11 -2 6 -1 36 2 65 3 30 4 57 1 59 -2 3 -22 5 -43 5 -21 0
-38 3 -39 8 0 4 -2 36 -3 72 -2 36 -4 69 -4 73 -1 5 -18 6 -37 3 -46 -8 -51 6
-49 125 l2 90 -42 -3 c-39 -3 -41 -1 -44 27 -6 73 -13 97 -27 91 -8 -3 -17 -1
-20 5 -4 5 -11 7 -16 3 -7 -4 -10 17 -9 57 1 35 1 69 1 75 -1 14 -41 26 -41
13 0 -5 -9 -9 -20 -9 -19 0 -21 5 -18 69 1 41 6 67 12 64 5 -3 6 -1 2 5 -13
21 -15 52 -4 52 6 0 5 7 -3 17 -10 11 -10 14 -1 9 6 -4 12 -2 12 3 0 6 -5 11
-11 11 -8 0 -8 4 0 14 7 8 8 17 3 20 -10 6 -9 36 2 54 4 6 3 12 -1 12 -5 0 -9
9 -9 20 0 11 5 20 11 20 5 0 3 5 -5 10 -23 15 -133 13 -124 -2 6 -10 4 -10 -7
0 -7 6 -30 12 -50 12 l-37 0 1 44 c2 39 -1 45 -21 49 -12 2 -25 0 -28 -4 -11
-19 -45 12 -44 39 4 50 2 52 -45 52 l-45 0 0 39 c0 40 0 40 -42 43 -38 3 -43
6 -44 28 -2 48 -3 50 -42 50 -37 0 -38 1 -40 37 -3 44 -10 56 -27 49 -7 -2
-18 1 -25 7 -10 9 -11 9 -6 0 5 -9 2 -11 -8 -7 -16 6 -20 20 -17 60 2 24 -31
36 -65 24 -26 -10 -38 -1 -23 16 9 11 8 14 -2 14 -10 0 -10 3 -2 11 16 16 -12
43 -37 36 -11 -3 -20 -2 -20 1 0 4 -15 7 -32 6 -55 -2 -74 12 -70 51 3 28 1
34 -14 34 -11 0 -59 1 -108 1 l-88 2 4 47 5 47 -47 -4 c-26 -2 -62 1 -81 5
-30 8 -34 13 -37 46 -4 41 1 39 -102 38 -30 0 -96 2 -147 5 l-92 6 -3 47 -3
46 -184 0 -183 0 6 42 6 43 -95 0 -95 0 0 60 0 60 -36 0 c-31 0 -36 -3 -31
-20 3 -11 1 -20 -4 -20 -11 0 -23 45 -17 68 4 15 -1 18 -28 17 -19 0 -34 4
-34 10 0 5 -5 3 -10 -5 -12 -19 -11 -23 -19 78 -1 6 -10 12 -20 12 -47 0 -51
8 -51 96 0 85 -2 89 -41 85 -13 -1 -16 8 -15 52 l1 54 -37 -4 c-36 -4 -38 -2
-39 24 -1 15 -1 31 0 35 1 7 -28 18 -58 23 -13 1 -16 16 -18 79 -2 97 -5 106
-42 106 -27 0 -30 3 -29 30 1 37 19 50 68 50 18 0 19 8 19 169 l0 168 -32 -3
c-44 -5 -56 5 -59 49 -2 31 -6 38 -23 36 -60 -4 -68 -1 -61 31 5 26 2 32 -17
39 -12 5 -25 7 -30 4 -4 -2 -15 -2 -25 2 -15 4 -19 15 -18 48 l1 42 -148 2
c-82 1 -152 4 -155 8 -3 3 -5 24 -3 46 1 22 -1 38 -6 37 -4 -1 -23 1 -40 5
-31 6 -33 9 -34 54 -1 27 0 63 1 80 1 19 -5 40 -14 49 -9 8 -16 11 -16 6 0
-13 -33 -10 -42 3 -4 6 -8 24 -8 41 0 29 -3 32 -38 38 -32 5 -38 9 -37 28 4
49 5 49 -216 48 -115 -1 -210 -4 -210 -8z"/>
<path d="M4758 7403 c7 -3 16 -2 19 1 4 3 -2 6 -13 5 -11 0 -14 -3 -6 -6z"/>
</g>
</svg>
